<?xml version="1.0" encoding="UTF-8" standalone="no"?>
<!DOCTYPE svg PUBLIC "-//W3C//DTD SVG 1.1//EN" "http://www.w3.org/Graphics/SVG/1.1/DTD/svg11.dtd"><svg width="100%"
  height="100%" viewBox="0 0 560 560" version="1.1" xmlns="http://www.w3.org/2000/svg"
  xmlns:xlink="http://www.w3.org/1999/xlink" xml:space="preserve" xmlns:serif="http://www.serif.com/"
  style="fill-rule:evenodd;clip-rule:evenodd;stroke-linejoin:round;stroke-miterlimit:2;">
  <g id="Isotipo">
    <rect x="0" y="-0" width="560" height="560" style="fill:none;" />
    <path
      d="M417.184,292.791l-271.018,-0l-0,235.901l271.018,-0l-0,-235.901Zm-284.941,-193.737l-45.921,0l-0,42.553l45.921,0l0,-42.553Zm325.882,-16.519l-45.922,-0l0,42.553l45.922,0l-0,-42.553Zm-153.179,-60.07l-45.922,-0l-0,42.553l45.922,-0l-0,-42.553Z"
      style="fill:#ffa500;fill-opacity:0.75;" />
    <path
      d="M402.663,123.958l-53.554,65.793c-1.865,2.291 -2.654,5.109 -2.429,7.84c-0.018,0.257 -0.027,0.516 -0.027,0.777l-0,72.434l-54.325,-0l-0,-47.858c-0,-6.068 -4.927,-10.995 -10.995,-10.995c-6.068,0 -10.994,4.927 -10.994,10.995l-0,47.858l-54.972,-0l-0,-158.741c-0,-3.034 -2.463,-5.497 -5.497,-5.497l-65.643,-0.032l-0,-6.143c-0,-9.459 -7.68,-17.139 -17.139,-17.139l-34.276,0c-9.459,0 -17.139,7.68 -17.139,17.139l0,34.276c0,9.459 7.68,17.139 17.139,17.139l34.276,-0c9.459,-0 17.139,-7.68 17.139,-17.139l-0,-6.144l49.151,0l0,142.281l-52.97,-0l-63.478,-67.636c-4.153,-4.425 -11.116,-4.645 -15.541,-0.493c-4.425,4.153 -4.645,11.116 -0.493,15.541l63.282,67.426l0,257.758c0,3.034 2.463,6.144 5.497,6.144l303.963,0c3.034,0 5.497,-3.11 5.497,-6.144l0,-257.439l62.971,-68.126c4.119,-4.456 3.845,-11.418 -0.611,-15.537c-4.456,-4.119 -11.417,-3.845 -15.536,0.611l-62.757,67.895l-54.56,-0l-0,-70.216l51.301,-63.026c3.578,1.267 7.425,1.956 11.431,1.956c18.918,-0 34.277,-15.359 34.277,-34.277c0,-18.918 -15.359,-34.277 -34.277,-34.277c-18.917,0 -34.276,15.359 -34.276,34.277c-0,6.905 2.046,13.336 5.565,18.719Zm-256.496,168.833l-0,234.762l270.979,0l0,-234.762l-270.979,-0Zm224.4,119.01l-33.773,25.985c-4.335,3.556 -4.968,9.962 -1.412,14.297c3.556,4.335 9.962,4.967 14.297,1.412l43.119,-35.334c1.538,-1.262 3.154,-3.994 3.154,-6.36c-0,-2.711 0.397,-7.061 -3.154,-9.906l-43.439,-34.839c-4.375,-3.506 -10.773,-2.8 -14.279,1.576c-3.506,4.375 -2.8,10.773 1.575,14.279l33.912,28.89Zm-204.375,-1.3c-0,2.711 1.993,6.112 4.276,8.171c7.954,7.174 43.451,34.873 43.451,34.873c4.373,3.51 10.772,2.809 14.281,-1.564c3.51,-4.372 2.809,-10.771 -1.564,-14.28l-33.89,-27.2l33.795,-27.675c4.338,-3.552 4.976,-9.958 1.424,-14.296c-3.553,-4.338 -9.958,-4.975 -14.296,-1.423c0,-0 -35.289,28.067 -43.201,35.299c-2.253,2.059 -4.276,5.384 -4.276,8.095Zm87.902,23.584c-2.803,4.855 -1.137,11.073 3.718,13.877c4.856,2.803 11.074,1.137 13.877,-3.719l37.192,-64.419c2.804,-4.855 1.138,-11.073 -3.718,-13.877c-4.855,-2.803 -11.073,-1.137 -13.877,3.719l-37.192,64.419Zm38.234,-258.352c-0,-6.068 -4.927,-10.995 -10.995,-10.995c-6.068,0 -10.994,4.927 -10.994,10.995c-0,6.067 4.926,10.994 10.994,10.994c6.068,-0 10.995,-4.927 10.995,-10.994Zm-21.342,-95.58l-0,48.571c-0,6.67 4.926,12.085 10.994,12.085c6.068,0 10.994,-5.415 10.994,-12.085l0,-48.571c13.531,-4.585 23.283,-17.399 23.283,-32.473c-0,-18.918 -15.359,-34.277 -34.277,-34.277c-18.918,0 -34.277,15.359 -34.277,34.277c0,15.074 9.752,27.888 23.283,32.473Zm-147.455,24.439l-26.516,0l0,25.869l26.516,0l0,-25.869Zm308.167,-12.934c7.674,-0 13.904,6.085 13.904,13.581c0,7.496 -6.23,13.581 -13.904,13.581c-7.674,0 -13.905,-6.085 -13.905,-13.581c0,-7.496 6.231,-13.581 13.905,-13.581Zm-150.041,-57.559c7.317,-0 13.258,6.085 13.258,13.581c-0,7.496 -5.941,13.581 -13.258,13.581c-7.318,0 -13.258,-6.085 -13.258,-13.581c-0,-7.496 5.94,-13.581 13.258,-13.581Z"
      style="fill:#007fff;" />
  </g>
</svg>